<?xml version="1.0" encoding="UTF-8"?>
<svg width="501px" height="500px" viewBox="0 0 501 500" version="1.1" xmlns="http://www.w3.org/2000/svg" xmlns:xlink="http://www.w3.org/1999/xlink">
    <title>support-color</title>
    <defs>
        <linearGradient x1="3.46760109e-17%" y1="0%" x2="100%" y2="100%" id="linearGradient-1">
            <stop stop-color="#FF0000" offset="0%"></stop>
            <stop stop-color="#FFF700" offset="100%"></stop>
        </linearGradient>
    </defs>
    <g id="Page-1" stroke="none" stroke-width="1" fill="none" fill-rule="evenodd">
        <g id="support-color" transform="translate(0.057000, 0.000000)" fill="url(#linearGradient-1)" fill-rule="nonzero">
            <path d="M469.991753,179.239771 C464.4385,79.4597388 368.275218,0 250.04178,0 C131.781315,0 35.5897192,79.4597388 30.0647802,179.217886 C12.7692628,182.78018 0,194.817967 0,209.259133 L0,286.916337 C0,304.146856 18.0445308,318.116498 40.3913842,318.116498 C62.7382376,318.116498 80.8110816,304.168741 80.8110816,286.916337 L80.8393948,286.916337 L80.8393948,280.907889 C99.9392365,349.637971 146.21591,438.646567 250.04178,438.646567 C353.81231,438.646567 400.117296,349.702632 419.244164,280.972549 L419.244164,286.916337 C419.244164,300.671108 430.848724,312.1936 446.782633,316.356739 C445.644956,332.085145 434.623391,415.192729 329.549166,449.890522 C322.970203,446.736087 314.974292,445.684609 307.035007,447.873116 L260.813673,461.134478 C247.377763,464.975309 240.520815,476.541572 245.461473,486.862375 C250.485782,497.269724 265.365667,502.569891 278.829891,498.771836 L325.051225,485.532359 C335.128158,482.656461 341.512789,475.447318 341.985105,467.679111 C459.690888,427.445387 471.766477,331.420635 472.932467,316.206528 C488.589678,311.979723 499.999953,300.541787 499.999953,286.916337 L499.999953,209.259133 C500.02822,194.839852 487.230644,182.78018 469.991753,179.239771 Z M250.04178,59.2458864 C158.12548,59.2458864 82.3940481,115.659645 70.5951565,188.703077 C67.4575368,185.9565 63.7382091,183.703332 59.5735917,181.943573 C63.4048853,94.887723 147.103915,25.3210335 250.040493,25.3210335 C352.950043,25.3210335 436.649074,94.887723 440.480367,181.943573 C436.344063,183.703332 432.623448,185.9565 429.487116,188.660302 C417.689511,115.63776 341.958079,59.2458864 250.04178,59.2458864 Z" id="Shape"></path>
        </g>
    </g>
</svg>