<?xml version="1.0" encoding="UTF-8"?>
<svg width="101px" height="102px" viewBox="0 0 101 102" version="1.1" xmlns="http://www.w3.org/2000/svg" xmlns:xlink="http://www.w3.org/1999/xlink">
    <title>S11-square</title>
    <g id="Page-1" stroke="none" stroke-width="1" fill="none" fill-rule="evenodd">
        <g id="S11-square" transform="translate(0.183892, 1.287368)" fill="#000000">
            <path d="M73.6383071,86.0592732 C73.3708338,86.5424672 72.7622977,86.7173434 72.2791037,86.44987 C71.9710257,86.2793326 71.7753475,85.959331 71.7639326,85.6073868 L71.5855552,80.1076816 C71.406107,74.5749616 67.9374736,69.6850781 62.7750015,67.6870606 L19.7142437,51.0213727 C14.1524261,48.8687976 11.3886891,42.6150467 13.5412642,37.0532291 C13.6691134,36.7228925 13.8131131,36.3991134 13.9727217,36.0830571 L13.9886585,36.0522709 L13.9822261,36.0501466 L26.2209548,13.9407268 C26.4884282,13.4575328 27.0969643,13.2826566 27.5801583,13.55013 C27.8882363,13.7206674 28.0839145,14.040669 28.0953294,14.3926132 L28.2737068,19.8923184 C28.453155,25.4250384 31.9217884,30.3149219 37.0842605,32.3129394 L80.1450182,48.9786273 C85.7068358,51.1312024 88.4705729,57.3849533 86.3179978,62.9467709 C86.1901485,63.2771075 86.0461489,63.6008866 85.8865403,63.9169429 L85.8696585,63.9462709 L85.8770359,63.9498534 L85.7306585,64.2122709 L85.7217487,64.2303818 L73.6383071,86.0592732 Z" id="Combined-Shape"></path>
            <path d="M40.8609564,20.1004568 L80.1351279,17.4295543 C81.1317441,17.3617778 81.9255324,16.5690465 81.9946366,15.5725214 L82.2920755,11.2832736 C82.3302821,10.732312 82.8078973,10.3166419 83.3588589,10.3548485 C83.7226365,10.3800747 84.0438438,10.6013155 84.1970883,10.9322032 L93.2506332,30.4807416 C93.714828,31.4830374 93.2786109,32.671863 92.2763151,33.1360578 C92.0479446,33.2418234 91.8016637,33.3035361 91.5504038,33.3179554 L40.2674214,36.2609923 C39.1646663,36.3242774 38.219404,35.4816205 38.1561189,34.3788654 C38.1512832,34.2946028 38.1517862,34.2101185 38.157625,34.1259194 L39.0014476,21.9574897 C39.0705519,20.9609646 39.8643401,20.1682333 40.8609564,20.1004568 Z" id="Path-2" transform="translate(66.243572, 21.895681) rotate(25.000000) translate(-66.243572, -21.895681) "></path>
            <path d="M8.35775874,76.3367358 L47.6319302,73.6658333 C48.6285465,73.5980569 49.4223347,72.8053255 49.491439,71.8088005 L49.7888618,67.5197847 C49.8270683,66.9688231 50.3046835,66.553153 50.8556451,66.5913596 C51.2194331,66.6165865 51.5406474,66.837839 51.6938867,67.1687404 L60.6234805,86.4510986 C61.0876464,87.4534078 60.6513951,88.6422208 59.6490859,89.1063868 C59.4238379,89.2106983 59.1811397,89.2721667 58.9333942,89.2876506 L19.2502988,91.7678142 L19.2502988,91.7678142 L7.77519972,92.4849992 C6.67278123,92.5538995 5.72323972,91.7160675 5.6543394,90.613649 C5.64886265,90.52602 5.64916221,90.4381254 5.65523613,90.3505358 L6.49824997,78.1937687 C6.56735423,77.1972436 7.36114247,76.4045123 8.35775874,76.3367358 Z" id="Path-2" transform="translate(33.674968, 78.131960) rotate(205.000000) translate(-33.674968, -78.131960) "></path>
        </g>
    </g>
</svg>