<?xml version="1.0" encoding="UTF-8"?>
<svg width="500px" height="501px" viewBox="0 0 500 501" version="1.1" xmlns="http://www.w3.org/2000/svg" xmlns:xlink="http://www.w3.org/1999/xlink">
    <title>advice-color</title>
    <defs>
        <linearGradient x1="1.48342793e-21%" y1="18.0495406%" x2="100%" y2="57.8927028%" id="linearGradient-1">
            <stop stop-color="#FF0000" offset="0%"></stop>
            <stop stop-color="#FFF700" offset="100%"></stop>
        </linearGradient>
        <linearGradient x1="1.48342793e-21%" y1="-64.8371907%" x2="100%" y2="78.3681621%" id="linearGradient-2">
            <stop stop-color="#FF0000" offset="0%"></stop>
            <stop stop-color="#FFF700" offset="100%"></stop>
        </linearGradient>
        <linearGradient x1="1.48342793e-21%" y1="-12.0606783%" x2="100%" y2="65.330812%" id="linearGradient-3">
            <stop stop-color="#FF0000" offset="0%"></stop>
            <stop stop-color="#FFF700" offset="100%"></stop>
        </linearGradient>
        <linearGradient x1="1.48342793e-21%" y1="-144.956848%" x2="100%" y2="98.1600729%" id="linearGradient-4">
            <stop stop-color="#FF0000" offset="0%"></stop>
            <stop stop-color="#FFF700" offset="100%"></stop>
        </linearGradient>
    </defs>
    <g id="Page-1" stroke="none" stroke-width="1" fill="none" fill-rule="evenodd">
        <g id="advice-color" transform="translate(0.000157, 0.232000)" fill-rule="nonzero">
            <path d="M479.768363,301.346432 C470.175881,301.233233 451.094061,315.100161 445.936812,318.652845 C427.267572,331.259144 401.584474,350.741605 384.874988,366.098369 C383.740394,367.129793 382.193219,368.505026 380.955479,369.53645 C373.425896,375.954202 365.277444,380.538311 356.097541,383.517981 C305.762794,399.791567 231.292124,406.667729 231.292124,406.667729 L226.960036,407.240743 C223.659396,407.699154 220.668192,405.292497 219.946177,401.62521 C219.121018,397.614115 221.596497,393.717623 225.206571,393.030006 L335.159112,372.630723 C347.227073,370.224066 356.200686,356.357138 354.034642,341.573388 C351.868597,326.904241 339.284911,316.933805 327.216949,319.340462 L228.610355,325.1852 C221.905932,325.529008 211.07571,324.497584 204.474432,322.778543 C139.699389,306.046547 105.042678,328.737884 86.5797285,339.510539 C81.8350597,331.717555 73.480317,327.018843 64.5067044,328.394076 L22.2172657,334.811828 C8.18954937,336.989279 -1.71236798,351.314619 0.247386495,367.01519 L13.553088,475.314755 C15.5128424,490.900724 28.405964,501.902584 42.5368252,499.725133 L84.8262639,493.307381 C93.7998765,491.932148 100.71059,485.055986 103.392358,476.116974 L290.600484,471.647468 C311.538913,472.678892 330.827023,468.323989 348.567958,455.946896 L353.725207,452.279609 L489.154556,346.73051 C495.858979,341.573388 500.294213,333.092787 499.984778,324.039173 C499.469053,313.151915 493.280354,301.462438 479.768363,301.346432 Z M56.3582515,472.908098 C48.3129437,473.481111 41.4022305,466.719551 40.8865057,457.895142 C40.3707808,448.956131 46.4563342,441.277749 54.3984971,440.704735 C62.4438049,440.131722 69.3545181,446.893282 69.8702429,455.717691 C70.4891128,464.5421 64.4035594,472.220482 56.3582515,472.908098 Z" id="Shape" fill="url(#linearGradient-1)"></path>
            <path d="M376.417101,337.44769 C376.829681,340.541964 377.03597,343.521634 377.03597,346.501305 C378.48,345.240675 379.820885,343.865442 381.264914,342.604812 C394.983196,329.883911 423.348063,309.370025 439.438679,298.368165 C444.286493,295.044686 449.443741,291.83581 455.01357,288.970742 C447.380842,283.928223 439.644969,284.157428 431.805951,288.397729 C416.334205,296.763727 388.175627,315.214764 373.838476,325.643611 C373.735331,325.872816 373.735331,326.102022 373.632186,326.331227 C374.869926,330.113117 375.901376,333.665801 376.417101,337.44769 Z" id="Path" fill="url(#linearGradient-2)"></path>
            <path d="M392.817151,278.541896 C383.327814,283.699018 361.87366,293.554851 352.487467,300.201808 C356.819556,302.837671 360.84221,306.275752 364.245994,310.286847 C364.864864,309.713834 365.380589,309.14082 366.102603,308.682409 L372.910172,303.63989 C382.915234,296.190713 404.575678,285.647264 415.715335,278.885704 C408.185752,273.957787 400.553024,274.301595 392.817151,278.541896 Z" id="Path" fill="url(#linearGradient-3)"></path>
            <path d="M257.387802,9.45472388 C250.889669,-3.15157463 234.489618,-3.15157463 227.88834,9.45472388 L115.150885,226.512264 C108.652752,239.118562 116.801205,254.819134 129.900616,254.819134 L355.478671,254.819134 C368.578083,254.819134 376.726536,239.118562 370.228402,226.512264 L257.387802,9.45472388 Z M242.844361,76.2681059 C250.064509,76.2681059 255.943773,82.9150633 255.737483,90.9372533 L253.571438,173.336604 C253.365148,179.868959 248.62048,185.026081 242.844361,185.026081 C236.965098,185.026081 232.220429,179.868959 232.117284,173.336604 L230.054385,90.9372533 C229.74495,82.9150633 235.624213,76.2681059 242.844361,76.2681059 Z M242.741216,225.366236 C235.314778,225.366236 229.33237,218.719279 229.33237,210.467884 C229.33237,202.216488 235.314778,195.569531 242.741216,195.569531 C250.167654,195.569531 256.150063,202.216488 256.150063,210.467884 C256.150063,218.719279 250.064509,225.366236 242.741216,225.366236 Z" id="Shape" fill="url(#linearGradient-4)"></path>
        </g>
    </g>
</svg>