<?xml version="1.0" encoding="UTF-8"?>
<svg width="501px" height="501px" viewBox="0 0 501 501" version="1.1" xmlns="http://www.w3.org/2000/svg" xmlns:xlink="http://www.w3.org/1999/xlink">
    <title>service-color</title>
    <defs>
        <linearGradient x1="-4.44557434e-16%" y1="-1.33768584e-15%" x2="100%" y2="100%" id="linearGradient-1">
            <stop stop-color="#FF0000" offset="0%"></stop>
            <stop stop-color="#FFF700" offset="100%"></stop>
        </linearGradient>
    </defs>
    <g id="Page-1" stroke="none" stroke-width="1" fill="none" fill-rule="evenodd">
        <g id="service-color" transform="translate(0.435681, 0.399966)" fill="url(#linearGradient-1)" fill-rule="nonzero">
            <path d="M197.876448,302.259027 C202.347647,306.731729 202.347647,313.980304 197.876448,318.453006 L68.8991255,447.403474 C64.4218984,451.875317 57.1660853,451.872112 52.6928134,447.396314 C48.2195414,442.920517 48.2227477,435.66702 52.6999748,431.195176 L181.677298,302.259027 C186.151428,297.789255 193.402318,297.789255 197.876448,302.259027 Z M496.851755,439.714555 C495.668074,443.564218 492.548997,446.509615 488.63698,447.471904 C484.724963,448.434194 480.594837,447.271977 477.759387,444.410952 L438.872832,405.536811 L417.746618,426.670598 L456.647497,465.573376 C459.486329,468.417408 460.627096,472.540398 459.653716,476.438536 C458.680337,480.336673 455.735124,483.44003 451.892308,484.616694 C444.889525,486.736531 437.610207,487.802987 430.293441,487.781035 C407.892493,487.781035 384.789726,478.187784 367.401778,460.805387 C350.772941,444.18186 341.119336,422.475341 340.446162,400.582684 L265.42304,325.569194 C264.493785,325.054946 263.640568,324.414032 262.887894,323.664862 L254.910063,315.689577 C251.898968,325.650644 246.460651,334.708333 239.083306,342.049539 L99.4784241,481.609854 C88.3930968,492.820406 73.4555473,499.393492 57.6986517,499.997317 L55.5502232,499.997317 C40.7706058,500.142945 26.5497466,494.355315 16.0764307,483.929416 C-6.25290257,461.607211 -5.19301119,424.207853 18.4540249,400.568366 L158.058907,261.00805 C165.402481,253.64028 174.456524,248.20467 184.412963,245.186346 L176.463778,237.239698 C175.714368,236.487265 175.07325,235.63432 174.558838,234.705362 L99.292227,159.448461 C77.4069023,158.789819 55.7077747,149.139296 39.1362297,132.515768 C16.0621079,109.420376 6.70928256,76.2878661 15.3029965,48.0378914 C16.4775943,44.1905316 19.5848628,41.2410565 23.4890812,40.2675127 C27.3932995,39.293969 31.5222257,40.4390491 34.3667185,43.2842211 L73.2675967,82.1583626 L94.4081329,61.0102569 L55.4499632,22.2077068 C52.6038827,19.3641221 51.458437,15.2365139 52.4322916,11.333542 C53.4061462,7.43057003 56.3565631,4.32429347 60.2051516,3.15007056 C88.4355018,-5.44089994 121.607237,3.88030305 144.710005,26.9613771 C161.353164,43.5849051 171.00677,65.2914239 171.679944,87.1983986 L271.939939,187.426388 L426.354655,32.9607382 C427.147077,32.1479223 428.060148,31.4621307 429.061675,30.9275419 L482.48593,2.29097351 C486.928994,-0.0711293802 492.393736,0.741233794 495.957032,4.29352501 C499.520329,7.84581623 500.348107,13.3065394 497.997583,17.7547204 L469.237288,71.1619204 C468.707929,72.1467723 468.037191,73.0488441 467.246411,73.8394395 L312.774403,228.262134 L412.819556,328.275349 C434.704881,328.93399 456.389685,338.584514 472.975553,355.208042 C496.106966,378.303434 505.445469,411.450262 496.851755,439.657282 L496.851755,439.714555 Z M288.310964,282.04161 L218.128967,211.882017 L201.099091,228.892139 L271.281088,299.051731 L288.310964,282.04161 Z M265.165228,226.486667 L273.658682,234.97741 L449.829817,58.8625143 L459.712588,40.506474 L441.336363,50.3717718 L265.165228,226.486667 Z M112.139829,139.946958 L184.885617,212.669523 L210.007908,187.555252 C214.482038,183.085481 221.732928,183.085481 226.207058,187.555252 L248.951755,210.292688 L255.669174,203.577412 L152.100599,100.0419 C149.854912,97.798095 148.641227,94.7233691 148.749051,91.551157 C149.336288,74.2546698 141.960017,56.6145437 128.496531,43.1696748 C117.876251,32.3551108 103.968858,25.3658681 88.9511246,23.2958964 L118.656729,53.006336 C123.127928,57.4790382 123.127928,64.7276133 118.656729,69.2003154 L81.3027192,106.542401 C76.8285888,111.012172 69.577699,111.012172 65.1035685,106.542401 L35.412287,76.8605975 C37.4889173,91.8512806 44.4569621,105.737623 55.2351204,116.364743 C68.6986055,129.809612 86.3300419,137.183529 103.603407,136.596479 L104.004447,136.596479 C107.054208,136.586475 109.982128,137.792311 112.139829,139.946958 Z M234.471347,295.257386 L204.851679,265.661493 C193.458264,264.835114 182.277047,269.054872 174.272381,277.20203 L34.6531756,416.8053 C19.943602,431.510178 18.8980334,454.376478 32.2899043,467.778392 C38.816138,474.197013 47.7396843,477.579293 56.8822489,477.099595 C66.8415934,476.695672 76.2740406,472.518463 83.2649506,465.415875 L222.884156,325.884196 C229.989012,318.895517 234.167555,309.466081 234.571607,299.509916 C234.626064,298.091697 234.59258,296.671466 234.471347,295.257386 Z M476.685173,410.906167 C474.60728,395.91096 467.621943,382.025301 456.819371,371.416339 C443.355886,357.957152 425.72445,350.597554 408.465407,351.184604 C405.292182,351.292393 402.216475,350.079095 399.971954,347.834125 L296.575252,244.470432 L289.857833,251.185707 L312.616852,273.951779 C317.088051,278.424481 317.088051,285.673056 312.616852,290.145758 L287.508884,315.245711 L359.996861,387.739183 C362.238848,389.979547 363.452227,393.048313 363.348409,396.215608 C362.775495,413.512095 370.151766,431.152221 383.600929,444.611408 C394.22582,455.417179 408.13171,462.400632 423.146335,464.470868 L393.440731,434.774747 C391.289128,432.626222 390.080169,429.710762 390.080169,426.670598 C390.080169,423.630434 391.289128,420.714974 393.440731,418.566449 L430.794741,381.224364 C435.268871,376.754593 442.519761,376.754593 446.993891,381.224364 L476.685173,410.906167 Z" id="Shape"></path>
        </g>
    </g>
</svg>